<svg width="424" height="539" viewBox="0 0 424 539" fill="none" xmlns="http://www.w3.org/2000/svg">
<g clip-path="url(#clip0_106_582)">
<rect x="0.75" y="0.75" width="422.5" height="537.5" rx="23.25" fill="white" stroke="#1681FE" stroke-width="1.5"/>
<path opacity="0.0833333" fill-rule="evenodd" clip-rule="evenodd" d="M12.6676 241.641C-4.28047 258.213 -34.0274 256.536 -56.5836 251.003C-77.9192 245.77 -88.1022 223.412 -106.643 212.377C-125.817 200.967 -152.512 201.751 -167.073 185.249C-182.681 167.56 -188.716 143.122 -188.725 119.354C-188.735 94.4728 -189.596 61.368 -167.126 47.9489C-141.169 32.4477 -107.831 65.1084 -79.6345 54.2063C-55.6991 44.9516 -57.7237 -6.64925 -32.6548 -4.04462C-6.61356 -1.33896 -23.2242 50.7825 -0.434252 62.4351C26.0722 75.9879 66.3985 40.9508 89.9843 58.661C109.426 73.2599 102.405 108.569 89.9697 130.318C77.6192 151.92 40.6781 149.307 26.4142 169.848C11.9131 190.731 31.0106 223.705 12.6676 241.641Z" stroke="url(#paint0_linear_106_582)" stroke-opacity="0.3" stroke-width="1.72076"/>
<path opacity="0.166667" fill-rule="evenodd" clip-rule="evenodd" d="M5.16026 225.609C-13.5637 239.951 -42.7492 234.614 -64.3704 226.341C-84.8215 218.517 -92.2077 195.085 -109.205 181.852C-126.781 168.168 -153.246 165.649 -165.657 147.484C-178.961 128.015 -182.001 103.033 -179.168 79.4597C-176.203 54.7828 -173.096 21.8449 -149.293 11.3117C-121.798 -0.855819 -92.7691 35.6525 -63.6113 28.3226C-38.8597 22.1003 -34.69 -29.3245 -10.2366 -23.6454C15.1653 -17.746 -7.4759 31.8937 13.6444 46.2646C38.2089 62.979 82.2354 33.2115 103.417 53.6883C120.878 70.5677 109.72 104.718 94.8352 124.752C80.0517 144.65 43.8711 137.496 27.3242 156.106C10.502 175.026 25.4253 210.087 5.16026 225.609Z" stroke="url(#paint1_linear_106_582)" stroke-opacity="0.3" stroke-width="1.72076"/>
<path opacity="0.25" fill-rule="evenodd" clip-rule="evenodd" d="M-0.125737 209.052C-20.3364 220.979 -48.5141 212.094 -68.8699 201.228C-88.1243 190.949 -92.6038 166.793 -107.798 151.574C-123.51 135.835 -149.34 130.081 -159.414 110.533C-170.212 89.5799 -170.214 64.4201 -164.586 41.3801C-158.695 17.2613 -151.671 -15.0362 -126.903 -22.5596C-98.2925 -31.2504 -74.0129 8.54155 -44.3415 4.8549C-19.154 1.72536 -8.86144 -48.7835 14.6025 -40.1417C38.9765 -31.1647 10.6591 15.3015 29.7881 32.1571C52.0365 51.7614 99.0839 27.6416 117.541 50.5627C132.755 69.4571 117.636 101.967 100.533 120.014C83.5457 137.938 48.6792 126.391 30.1055 142.82C11.223 159.523 21.7484 196.143 -0.125737 209.052Z" stroke="url(#paint2_linear_106_582)" stroke-opacity="0.3" stroke-width="1.72076"/>
<path opacity="0.333333" fill-rule="evenodd" clip-rule="evenodd" d="M-3.1553 192.247C-24.5451 201.611 -51.2873 189.345 -70.0693 176.07C-87.835 163.513 -89.3414 138.992 -102.503 122.028C-116.113 104.486 -140.915 95.6149 -148.5 74.9819C-156.63 52.8658 -153.596 27.896 -145.26 5.71883C-136.533 -17.4966 -125.702 -48.6905 -100.345 -53.1263C-71.0543 -58.2504 -51.8901 -15.7883 -22.1562 -15.8164C3.08448 -15.8402 19.3405 -64.7077 41.4591 -53.26C64.4355 -41.3683 30.8749 1.28139 47.723 20.3502C67.3187 42.5288 116.671 24.3483 132.123 49.3546C144.861 69.9678 126.013 100.382 106.952 116.199C88.0209 131.909 54.9974 116.183 34.6801 130.215C14.025 144.481 19.9949 182.113 -3.1553 192.247Z" stroke="url(#paint3_linear_106_582)" stroke-opacity="0.3" stroke-width="1.72076"/>
<path opacity="0.416667" fill-rule="evenodd" clip-rule="evenodd" d="M-3.92765 175.473C-26.1748 182.163 -51.0799 166.735 -68.0059 151.273C-84.0161 136.648 -82.5268 112.125 -93.458 93.6858C-104.762 74.6177 -128.164 62.7943 -133.146 41.3917C-138.486 18.4507 -132.461 -5.96407 -121.542 -26.9618C-110.112 -48.9425 -95.6365 -78.5864 -70.0721 -79.9034C-40.5411 -81.4248 -26.7799 -36.9463 2.56966 -33.3557C27.4841 -30.3076 49.4586 -76.8334 69.8995 -62.7791C91.1331 -48.1798 52.8342 -9.93143 67.1484 11.0459C83.797 35.4442 134.712 23.4049 146.928 50.1057C156.998 72.1157 134.705 100.01 113.973 113.39C93.3822 126.679 62.6978 107.051 40.9425 118.507C18.8255 130.153 20.1506 168.231 -3.92765 175.473Z" stroke="url(#paint4_linear_106_582)" stroke-opacity="0.3" stroke-width="1.72076"/>
<path opacity="0.5" fill-rule="evenodd" clip-rule="evenodd" d="M-2.47549 159.003C-25.2494 162.951 -47.947 144.625 -62.7655 127.23C-76.7821 110.777 -72.3195 86.6179 -80.8578 66.994C-89.6874 46.7006 -111.342 32.1338 -113.647 10.2885C-116.117 -13.1271 -107.191 -36.6301 -93.8517 -56.1495C-79.888 -76.5827 -61.9834 -104.253 -36.5913 -102.467C-7.25941 -100.403 0.894152 -54.5924 29.4231 -47.4771C53.6409 -41.437 81.0073 -84.9556 99.4666 -68.533C118.642 -51.4734 76.174 -18.1456 87.7416 4.40694C101.196 30.6373 152.917 24.8492 161.715 52.8286C168.968 75.8924 143.561 100.881 121.466 111.652C99.5214 122.35 71.6323 99.1553 48.7624 107.893C25.5121 116.775 22.1728 154.729 -2.47549 159.003Z" stroke="url(#paint5_linear_106_582)" stroke-opacity="0.3" stroke-width="1.72076"/>
<path opacity="0.583333" fill-rule="evenodd" clip-rule="evenodd" d="M1.13429 143.105C-21.8314 144.282 -41.9886 123.365 -54.4823 104.321C-66.2999 86.3071 -58.9302 62.871 -64.9509 42.3704C-71.177 21.1705 -90.7654 4.10986 -90.3604 -17.8449C-89.9262 -41.3778 -78.2306 -63.6259 -62.6677 -81.3898C-46.3762 -99.9855 -25.3065 -125.288 -0.459905 -120.46C28.2418 -114.882 30.6695 -68.4426 57.9587 -57.9487C81.1241 -49.0406 113.479 -88.9312 129.686 -70.4134C146.521 -51.1774 100.51 -23.2167 109.161 0.554575C119.224 28.2023 170.99 28.683 176.243 57.5061C180.572 81.2654 152.425 103.004 129.293 111.033C106.318 119.008 81.6331 92.6357 57.985 98.5535C33.9437 104.57 25.9902 141.83 1.13429 143.105Z" stroke="url(#paint6_linear_106_582)" stroke-opacity="0.3" stroke-width="1.72076"/>
<path opacity="0.666667" fill-rule="evenodd" clip-rule="evenodd" d="M6.80424 128.033C-16.0192 126.451 -33.3449 103.289 -43.334 82.9022C-52.7826 63.6186 -42.6155 41.2537 -46.0331 20.1974C-49.5672 -1.57733 -66.8069 -20.8461 -63.6999 -42.5755C-60.3695 -65.8669 -46.0771 -86.5353 -28.5187 -102.293C-10.1383 -118.788 13.7875 -141.364 37.7277 -133.599C65.3824 -124.63 62.0536 -78.2733 87.7073 -64.5963C109.484 -52.986 146.352 -88.6811 160.073 -68.3718C174.326 -47.2748 125.443 -25.0489 131.055 -0.433114C137.583 28.1968 188.642 34.8723 190.275 64.0921C191.621 88.1785 161.146 106.371 137.313 111.566C113.642 116.726 92.5182 87.61 68.4365 90.6485C43.9543 93.7376 31.5061 129.745 6.80424 128.033Z" stroke="url(#paint7_linear_106_582)" stroke-opacity="0.3" stroke-width="1.72076"/>
<path opacity="0.75" fill-rule="evenodd" clip-rule="evenodd" d="M14.4066 114.029C-7.94607 109.739 -22.1956 84.709 -29.5404 63.3056C-36.4879 43.0603 -23.6745 22.0992 -24.4442 0.8155C-25.2401 -21.1943 -39.8866 -42.3538 -34.1269 -63.5268C-27.9533 -86.2217 -11.2743 -105.009 8.02327 -118.538C28.2243 -132.7 54.6568 -152.23 77.3473 -141.677C103.558 -129.487 94.5308 -83.9242 118.182 -67.3052C138.26 -53.1977 179.102 -84.1911 190.144 -62.4196C201.613 -39.8036 150.567 -23.5966 153.065 1.47766C155.969 30.6409 205.587 43.3476 203.582 72.512C201.93 96.5527 169.57 110.956 145.382 113.265C121.357 115.557 104.092 84.1721 79.9244 84.3131C55.3548 84.4564 38.5989 118.672 14.4066 114.029Z" stroke="url(#paint8_linear_106_582)" stroke-opacity="0.3" stroke-width="1.72076"/>
<path opacity="0.833333" fill-rule="evenodd" clip-rule="evenodd" d="M23.7858 101.313C2.22216 94.4057 -8.75603 67.9113 -13.3591 45.8311C-17.7131 24.9457 -2.444 5.69995 -0.56211 -15.48C1.38398 -37.3825 -10.4672 -60.089 -2.14465 -80.3832C6.77615 -102.136 25.5966 -118.768 46.3527 -129.879C68.0806 -141.51 96.6349 -157.719 117.755 -144.566C142.152 -129.372 127.57 -85.3002 148.887 -66.0222C166.982 -49.6575 211.205 -75.5117 219.417 -52.6274C227.946 -28.8555 175.474 -18.8649 174.829 6.27627C174.079 35.5174 221.55 54.0054 215.947 82.6641C211.329 106.288 177.552 116.713 153.354 116.125C129.32 115.541 116.15 82.391 92.242 79.6579C67.9363 76.8794 47.1243 108.789 23.7858 101.313Z" stroke="url(#paint9_linear_106_582)" stroke-opacity="0.3" stroke-width="1.72076"/>
<path opacity="0.916667" fill-rule="evenodd" clip-rule="evenodd" d="M34.7622 90.0845C14.2908 80.6867 6.72667 53.151 4.91971 30.7423C3.21053 9.54627 20.7083 -7.69805 25.2042 -28.4459C29.8535 -49.9016 20.9547 -73.7903 31.7115 -92.8969C43.2414 -113.377 63.9271 -127.612 85.8408 -136.151C108.78 -145.089 139.042 -157.75 158.298 -142.221C180.541 -124.282 160.635 -82.3746 179.324 -60.7575C195.188 -42.4071 242.149 -62.7593 247.425 -39.1264C252.906 -14.5768 199.758 -10.9106 195.993 13.9062C191.614 42.77 236.272 66.7082 227.165 94.4195C219.659 117.262 184.95 123.577 161.087 120.123C137.386 116.694 128.481 82.3081 105.172 76.7652C81.4744 71.1302 56.9184 100.256 34.7622 90.0845Z" stroke="url(#paint10_linear_106_582)" stroke-opacity="0.3" stroke-width="1.72076"/>
<path fill-rule="evenodd" clip-rule="evenodd" d="M47.1325 80.5183C28.0377 68.792 23.9762 40.6507 24.9758 18.265C25.9212 -2.90945 45.3875 -17.896 52.4195 -37.891C59.6913 -58.5681 53.8549 -83.2594 66.8802 -100.888C80.8417 -119.784 103.089 -131.415 125.844 -137.264C149.663 -143.387 181.194 -152.325 198.322 -134.676C218.109 -114.289 193.19 -75.1865 209 -51.5817C222.42 -31.544 271.438 -46.1112 273.72 -22.1027C276.091 2.83712 223.025 0.16102 216.21 24.2686C208.284 52.3075 249.512 81.2889 237.049 107.627C226.776 129.338 191.633 131.469 168.441 125.222C145.407 119.017 140.871 83.9394 118.487 75.6907C95.7304 67.3048 67.799 93.2098 47.1325 80.5183Z" stroke="url(#paint11_linear_106_582)" stroke-opacity="0.3" stroke-width="1.72076"/>
</g>
<defs>
<linearGradient id="paint0_linear_106_582" x1="198.847" y1="225.161" x2="-157.591" y2="-62.351" gradientUnits="userSpaceOnUse">
<stop stop-color="#FFC881"/>
<stop offset="1" stop-color="#DA8517"/>
</linearGradient>
<linearGradient id="paint1_linear_106_582" x1="191.052" y1="232.258" x2="-128.072" y2="-95.5512" gradientUnits="userSpaceOnUse">
<stop stop-color="#FFC881"/>
<stop offset="1" stop-color="#DA8517"/>
</linearGradient>
<linearGradient id="paint2_linear_106_582" x1="182.63" y1="238.51" x2="-94.6654" y2="-124.792" gradientUnits="userSpaceOnUse">
<stop stop-color="#FFC881"/>
<stop offset="1" stop-color="#DA8517"/>
</linearGradient>
<linearGradient id="paint3_linear_106_582" x1="173.69" y1="243.845" x2="-57.8777" y2="-149.644" gradientUnits="userSpaceOnUse">
<stop stop-color="#FFC881"/>
<stop offset="1" stop-color="#DA8517"/>
</linearGradient>
<linearGradient id="paint4_linear_106_582" x1="164.349" y1="248.208" x2="-18.2604" y2="-169.742" gradientUnits="userSpaceOnUse">
<stop stop-color="#FFC881"/>
<stop offset="1" stop-color="#DA8517"/>
</linearGradient>
<linearGradient id="paint5_linear_106_582" x1="154.732" y1="251.557" x2="23.5964" y2="-184.789" gradientUnits="userSpaceOnUse">
<stop stop-color="#FFC881"/>
<stop offset="1" stop-color="#DA8517"/>
</linearGradient>
<linearGradient id="paint6_linear_106_582" x1="144.965" y1="253.866" x2="67.0713" y2="-194.561" gradientUnits="userSpaceOnUse">
<stop stop-color="#FFC881"/>
<stop offset="1" stop-color="#DA8517"/>
</linearGradient>
<linearGradient id="paint7_linear_106_582" x1="135.177" y1="255.125" x2="111.522" y2="-198.912" gradientUnits="userSpaceOnUse">
<stop stop-color="#FFC881"/>
<stop offset="1" stop-color="#DA8517"/>
</linearGradient>
<linearGradient id="paint8_linear_106_582" x1="125.499" y1="255.34" x2="156.296" y2="-197.77" gradientUnits="userSpaceOnUse">
<stop stop-color="#FFC881"/>
<stop offset="1" stop-color="#DA8517"/>
</linearGradient>
<linearGradient id="paint9_linear_106_582" x1="116.058" y1="254.534" x2="200.735" y2="-191.145" gradientUnits="userSpaceOnUse">
<stop stop-color="#FFC881"/>
<stop offset="1" stop-color="#DA8517"/>
</linearGradient>
<linearGradient id="paint10_linear_106_582" x1="106.979" y1="252.743" x2="244.191" y2="-179.125" gradientUnits="userSpaceOnUse">
<stop stop-color="#FFC881"/>
<stop offset="1" stop-color="#DA8517"/>
</linearGradient>
<linearGradient id="paint11_linear_106_582" x1="98.3799" y1="250.02" x2="286.028" y2="-161.873" gradientUnits="userSpaceOnUse">
<stop stop-color="#FFC881"/>
<stop offset="1" stop-color="#DA8517"/>
</linearGradient>
<clipPath id="clip0_106_582">
<rect width="424" height="539" fill="white"/>
</clipPath>
</defs>
</svg>
