<svg width="200" height="78" viewBox="0 0 200 78" fill="none" xmlns="http://www.w3.org/2000/svg">
<path d="M59.7941 43.1008V56.7101C59.7941 56.9307 59.7069 57.1423 59.5516 57.2983C59.3964 57.4543 59.1859 57.5419 58.9663 57.5419H54.691C54.4715 57.5418 54.261 57.4542 54.1058 57.2982C53.9506 57.1422 53.8633 56.9307 53.8633 56.7101V34.5739C53.8633 34.3533 53.9505 34.1417 54.1057 33.9857C54.2609 33.8297 54.4715 33.7421 54.691 33.7421H58.6473C58.8669 33.7421 59.0774 33.8297 59.2327 33.9857C59.3879 34.1417 59.4751 34.3533 59.4751 34.5739V37.6912C59.4751 37.6912 60.8894 33.2444 65.0866 33.2444C65.0866 33.2444 69.2382 32.7401 70.9262 37.3703C70.9262 37.3703 72.3405 33.2444 76.6289 33.2444C76.6289 33.2444 83.0065 32.8634 83.0065 39.4946L83.055 43.1466V56.756C83.055 56.9766 82.9678 57.1882 82.8126 57.3441C82.6573 57.5001 82.4468 57.5878 82.2273 57.5878H77.9516C77.7321 57.5877 77.5216 57.5 77.3664 57.344C77.2111 57.1881 77.1239 56.9766 77.1238 56.756L77.0848 41.9089C77.2063 38.5469 74.4996 38.7915 74.4996 38.7915C71.0933 38.8527 71.4211 43.1466 71.4211 43.1466V56.756C71.4211 56.9766 71.3339 57.1882 71.1786 57.3441C71.0234 57.5001 70.8129 57.5878 70.5933 57.5878H66.318C66.0985 57.5877 65.888 57.5 65.7328 57.344C65.5776 57.1881 65.4903 56.9766 65.4902 56.756V42.2448C65.4902 42.2448 65.7403 38.7607 62.6986 38.7607C62.6989 38.7607 59.6879 38.3635 59.7941 43.1008ZM170 43.0601V56.6691C170 56.8896 169.913 57.1012 169.757 57.2571C169.602 57.4131 169.392 57.5008 169.172 57.5009L164.726 57.5874C164.506 57.5873 164.296 57.4996 164.141 57.3437C163.985 57.1877 163.898 56.9762 163.898 56.7556V42.2448C163.898 42.2448 164.148 38.7607 161.107 38.7607C161.107 38.7607 158.202 38.6169 158.202 44.0797V56.7098C158.202 56.9303 158.114 57.1419 157.959 57.2978C157.804 57.4538 157.594 57.5415 157.374 57.5416H153.098C152.879 57.5415 152.668 57.4538 152.513 57.2978C152.358 57.1419 152.271 56.9303 152.271 56.7098V34.5739C152.271 34.3533 152.358 34.1418 152.513 33.9858C152.668 33.8299 152.879 33.7422 153.098 33.7421H157.055C157.274 33.7421 157.485 33.8297 157.64 33.9857C157.795 34.1417 157.882 34.3533 157.882 34.5739V37.6912C157.882 37.6912 159.297 33.2444 163.494 33.2444C163.494 33.2444 167.99 32.559 169.504 37.2842C169.505 37.2838 170 38.2586 170 43.0601ZM139.13 33.1527C133.663 33.1527 129.231 37.7829 129.231 45.5764C129.231 52.4379 132.652 58 139.13 58C145.244 58 149.03 52.4379 149.03 45.5764C149.03 37.9205 144.598 33.1527 139.13 33.1527ZM142.581 45.8514C142.581 48.7854 142.216 50.3441 142.216 50.3441C141.697 53.4457 139.456 53.4501 139.126 53.4336C138.769 53.4479 136.51 53.4156 136.042 50.3441C136.042 50.3441 135.677 48.7854 135.677 45.8514V45.3625C135.677 42.4285 136.042 40.8699 136.042 40.8699C136.51 37.7983 138.77 37.7661 139.126 37.78C139.456 37.7635 141.697 37.7675 142.216 40.8699C142.216 40.8699 142.581 42.4285 142.581 45.3625V45.8514ZM126.749 37.6604V34.4844C126.749 34.2638 126.662 34.0523 126.506 33.8963C126.351 33.7404 126.141 33.6527 125.921 33.6526H111.789C111.57 33.6526 111.359 33.7402 111.204 33.8962C111.049 34.0522 110.962 34.2638 110.962 34.4844V37.6359C110.962 37.8564 111.049 38.068 111.204 38.2239C111.359 38.3799 111.57 38.4676 111.789 38.4677H119.161L110.436 51.1865C110.436 51.1865 110.092 51.7022 110.103 52.2717V56.1406C110.103 56.1406 110.046 57.4671 111.543 56.6973C111.543 56.6973 114.203 55.0829 118.662 55.0829C118.662 55.0829 123.065 55.0279 126.001 56.8363C126.001 56.8363 127.219 57.393 127.219 56.1688V52.8013C127.219 52.8013 127.33 51.9101 126.167 51.3538C126.167 51.3538 122.788 49.4892 118.357 49.7951L126.749 37.6604ZM50.5635 53.5832L49.2252 51.536C48.7992 50.7717 48.8299 49.9157 48.8299 49.9157V40.4723C49.0124 32.3121 40.0095 33.0152 40.0095 33.0152C32.0064 33.0152 30.8242 39.2738 30.8242 39.2738C30.4906 40.5321 31.4607 40.5625 31.4607 40.5625L35.3714 40.9612C35.3714 40.9612 36.0383 41.1145 36.281 40.3168C36.281 40.3168 36.7959 37.5864 39.676 37.5864C42.8096 37.5864 42.7771 40.2889 42.7771 40.2889V42.5514C36.5215 42.7616 33.6225 44.5066 33.6225 44.5066C29.76 46.707 30.003 51.0776 30.003 51.0776C30.003 58.1984 36.7551 57.8925 36.7551 57.8925C41.0738 57.8925 43.6286 54.7143 43.6286 54.7143C44.3889 56.0595 45.7882 57.3424 45.7882 57.3424C46.4882 58.1053 47.2178 57.4649 47.2178 57.4649L50.381 54.7451C51.0803 54.225 50.5635 53.5832 50.5635 53.5832ZM38.8628 53.4952C36.8313 53.4952 36.0762 51.4667 36.4135 49.4731C36.7511 47.4794 38.5044 45.9127 42.7775 45.9585V47.1706C42.929 52.4657 40.5537 53.4952 38.8628 53.4952ZM107.378 53.5832L106.04 51.536C105.614 50.7717 105.644 49.9157 105.644 49.9157V40.4723C105.827 32.3121 96.8237 33.0152 96.8237 33.0152C88.8205 33.0152 87.6384 39.2738 87.6384 39.2738C87.3048 40.5321 88.2749 40.5625 88.2749 40.5625L92.1856 40.9612C92.1856 40.9612 92.8524 41.1145 93.0951 40.3168C93.0951 40.3168 93.6101 37.5864 96.4901 37.5864C99.6238 37.5864 99.5913 40.2889 99.5913 40.2889V42.5514C93.336 42.7616 90.4366 44.5066 90.4366 44.5066C86.5741 46.707 86.8172 51.0776 86.8172 51.0776C86.8172 58.1984 93.5692 57.8925 93.5692 57.8925C97.8879 57.8925 100.443 54.7143 100.443 54.7143C101.203 56.0595 102.602 57.3424 102.602 57.3424C103.302 58.1053 104.032 57.4649 104.032 57.4649L107.195 54.7451C107.894 54.225 107.378 53.5832 107.378 53.5832ZM95.6769 53.4952C93.6455 53.4952 92.8904 51.4667 93.2276 49.4731C93.5652 47.4794 95.3185 45.9127 99.5913 45.9585V47.1706C99.7431 52.4657 97.3682 53.4952 95.6769 53.4952Z" fill="#B8BCC2"/>
<path d="M118.265 71.061C118.265 71.061 117.908 71.6818 118.347 71.8205C118.347 71.8205 118.842 72.0139 119.459 71.4408C119.459 71.4408 123.963 67.5065 124.072 60.3436C124.072 60.3436 124.105 59.4489 123.746 59.2042C123.746 59.2042 122.335 57.9561 117.261 58.3358C117.261 58.3358 112.839 58.6344 110.424 60.778C110.424 60.778 110.207 60.9677 110.207 61.2116C110.207 61.2116 110.155 61.7385 111.482 61.5102C111.482 61.5102 115.905 60.8857 118.536 61.2116C118.536 61.2116 119.893 61.3744 120.273 61.8361C120.273 61.8361 120.897 62.3517 120.571 64.0605C120.571 64.0612 119.676 68.4022 118.265 71.061Z" fill="#B8BCC2"/>
<path d="M117.374 64.1888C117.374 64.1888 118.034 65.0444 116.968 65.7825C116.968 65.7825 105.583 74.8891 86.4673 74.8891C86.4673 74.8891 66.7897 75.8598 50.3589 60.931C50.3589 60.931 49.7828 60.4253 50.1404 59.9552C50.1404 59.9552 50.4601 59.5226 51.2877 59.9931C51.2877 59.9931 66.7441 69.6243 87.0437 69.6243C87.0437 69.6243 101.153 70.1705 115.627 63.9805C115.627 63.9805 116.78 63.383 117.374 64.1888Z" fill="#B8BCC2"/>
</svg>
