<svg width="200" height="78" viewBox="0 0 200 78" fill="none" xmlns="http://www.w3.org/2000/svg">
<path d="M47.4787 16H48.7408C53.1222 16.0927 57.4321 17.8082 60.5277 20.8449C59.3847 21.9808 58.2179 23.0703 57.0988 24.2062C55.3605 22.6762 53.265 21.494 50.9791 21.0767C47.5978 20.3813 43.9545 21.0072 41.1209 22.8849C38.0253 24.8553 35.9299 28.1934 35.4775 31.7634C34.9774 35.2869 36.0013 38.996 38.3587 41.7314C40.6209 44.3972 44.0736 46.0663 47.6454 46.1822C50.9791 46.3677 54.4556 45.3709 56.8845 43.0991C58.7894 41.4996 59.6705 39.0655 59.9562 36.701C56.0034 36.701 52.0506 36.7242 48.0978 36.701V31.9256H64.7424C65.5997 37.0487 64.3614 42.8209 60.361 46.4836C57.6941 49.0799 54.0032 50.6099 50.2409 50.9112C46.5977 51.2589 42.8354 50.5867 39.5969 48.8712C35.7156 46.8545 32.62 43.4468 31.096 39.4364C29.6673 35.7506 29.6435 31.5779 30.977 27.8689C32.1914 24.4844 34.525 21.494 37.5253 19.4077C40.4065 17.3445 43.9069 16.2086 47.4787 16Z" fill="#B8BCC2"/>
<path d="M141 17H146V50.994C144.341 50.994 142.659 51.0179 141 50.9702C141.023 39.6627 141 28.3313 141 17Z" fill="#B8BCC2"/>
<path d="M75.2588 28.2099C78.3753 27.6183 81.7515 28.2809 84.3249 30.1505C86.6622 31.8071 88.2913 34.4104 88.7871 37.2503C89.4245 40.5399 88.6218 44.1371 86.497 46.7403C84.2068 49.6512 80.4529 51.2132 76.7935 50.9765C73.4409 50.7872 70.1828 49.1069 68.1996 46.3617C65.9567 43.3324 65.4137 39.1672 66.6414 35.6174C67.8691 31.8071 71.3397 28.8962 75.2588 28.2099ZM75.9671 32.7065C74.6922 33.0378 73.5117 33.7714 72.6618 34.8127C70.3717 37.558 70.5133 42.0308 73.0396 44.5867C74.4797 46.054 76.6518 46.7403 78.6586 46.338C80.5238 46.0067 82.1528 44.7524 83.05 43.0958C84.6082 40.2795 84.1596 36.3983 81.7751 34.1974C80.2405 32.7775 77.9975 32.1858 75.9671 32.7065Z" fill="#B8BCC2"/>
<path d="M100.258 28.2118C103.826 27.5252 107.724 28.5196 110.394 31.0292C114.742 34.9357 115.214 42.2516 111.505 46.75C109.26 49.5912 105.622 51.1538 102.03 50.988C98.6044 50.8933 95.2258 49.1887 93.1938 46.3712C90.902 43.2697 90.4058 39.008 91.7053 35.3856C93.0048 31.6921 96.4071 28.8747 100.258 28.2118ZM100.967 32.7102C99.6913 33.0417 98.5099 33.7756 97.6593 34.7937C95.3911 37.4927 95.4856 41.8965 97.9192 44.4771C99.3605 46.0161 101.605 46.7737 103.684 46.3475C105.527 45.9924 107.181 44.7613 108.079 43.1039C109.615 40.2628 109.166 36.38 106.756 34.1781C105.22 32.7575 102.975 32.1893 100.967 32.7102Z" fill="#B8BCC2"/>
<path d="M121.536 29.5704C124.253 27.8822 127.867 27.4132 130.796 28.867C131.717 29.2656 132.473 29.9455 133.205 30.6255C133.229 29.9924 133.205 29.3359 133.229 28.6794C134.811 28.7028 136.394 28.6794 138 28.7028V49.3831C137.976 52.5015 137.173 55.8075 134.906 58.0819C132.426 60.5907 128.623 61.3645 125.198 60.8486C121.536 60.3094 118.348 57.6599 116.93 54.3069C118.348 53.627 119.836 53.0877 121.3 52.4546C122.127 54.3773 123.804 56.0186 125.906 56.3937C128.008 56.7689 130.441 56.253 131.811 54.518C133.276 52.736 133.276 50.2975 133.205 48.1169C132.118 49.1721 130.867 50.1099 129.355 50.4616C126.072 51.3761 122.458 50.2506 119.93 48.0466C117.379 45.8426 115.867 42.4428 116.009 39.0664C116.08 35.2445 118.253 31.5634 121.536 29.5704ZM126.426 32.5716C124.985 32.8061 123.639 33.6033 122.717 34.7053C120.497 37.3313 120.497 41.5283 122.741 44.1075C124.017 45.6316 126.072 46.4756 128.056 46.2646C129.922 46.077 131.646 44.9047 132.567 43.2869C134.126 40.5436 133.866 36.8155 131.764 34.4239C130.465 32.9467 128.386 32.2199 126.426 32.5716Z" fill="#B8BCC2"/>
<path d="M152.551 30.8062C155.362 28.1562 159.695 27.257 163.302 28.653C166.721 29.9544 168.899 33.2433 170 36.6269C164.918 38.7564 159.859 40.8622 154.776 42.9917C155.479 44.3404 156.556 45.5708 158.008 46.0677C160.046 46.8012 162.482 46.5409 164.192 45.1685C164.871 44.648 165.409 43.9618 165.925 43.2993C167.213 44.1748 168.501 45.0266 169.789 45.902C167.962 48.6704 164.894 50.6106 161.592 50.9182C157.938 51.3678 154.05 49.9481 151.685 47.0614C147.797 42.5185 148.171 34.8996 152.551 30.8062ZM155.057 35.1835C154.261 36.3429 153.933 37.7626 153.956 39.1586C157.353 37.7389 160.749 36.3193 164.145 34.8759C163.583 33.5509 162.224 32.7464 160.842 32.5335C158.617 32.1312 156.299 33.3379 155.057 35.1835Z" fill="#B8BCC2"/>
</svg>
