<svg width="313" height="172" viewBox="0 0 313 172" fill="none" xmlns="http://www.w3.org/2000/svg">
<path d="M12 66.5L1.5 77L0 78V154.5C0 167.3 11.3333 171.167 17 171.5H292C308 171.5 312 160.5 312 155L311.5 10L303.5 2L291 28.5L286 13.5L274 31.5L268.5 40L263.5 66.5H240L231 40L219.5 22.5L209 28.5C207 36.5 202.7 53.6 201.5 58C200.3 62.4 177 65.5 165.5 66.5L160 43L110.5 58L93.5 40C93.8333 46 94.3 58 93.5 58C92.7 58 83.5 68.6667 79 74L64.5 58L49 46.5V52.5C42.1667 60.6667 27.6 78 24 82C20.4 86 17.8333 80.3333 17 77L12 66.5Z" fill="url(#paint0_linear_68_49)"/>
<path d="M1.5 77L12 66.5L17 77C17.8333 80.3333 20.4 86 24 82C27.6 78 42.1667 60.6667 49 52.5V46.5L64.5 58L79 74C83.5 68.6667 92.7 58 93.5 58C94.3 58 93.8333 46 93.5 40L110.5 58L160 43L165.5 66.5C177 65.5 200.3 62.4 201.5 58C202.7 53.6 207 36.5 209 28.5L219.5 22.5L231 40L240 66.5H263.5L268.5 40L274 31.5L286 13.5L291 28.5L303.5 2L311.5 10" stroke="#448C74" stroke-width="2"/>
<defs>
<linearGradient id="paint0_linear_68_49" x1="156" y1="-44.5" x2="161" y2="167.5" gradientUnits="userSpaceOnUse">
<stop stop-color="#448C74" stop-opacity="0.5"/>
<stop offset="1" stop-color="#448C74" stop-opacity="0"/>
</linearGradient>
</defs>
</svg>
