<svg width="312" height="312" viewBox="0 0 312 312" fill="none" xmlns="http://www.w3.org/2000/svg">
<path d="M156 267.802C173.008 267.802 189.792 263.921 205.074 256.456C220.356 248.99 233.733 238.137 244.188 224.721C254.642 211.305 261.898 195.681 265.402 179.038C268.907 162.395 268.569 145.172 264.413 128.68C260.257 112.187 252.392 96.8603 241.419 83.8658C230.446 70.8713 216.652 60.5517 201.088 53.6925C185.525 46.8334 168.601 43.6155 151.606 44.2839C134.612 44.9522 117.993 49.4892 103.016 57.5494L121.928 92.6896C131.559 87.5063 142.246 84.5887 153.175 84.1589C164.103 83.7291 174.986 85.7984 184.995 90.2093C195.003 94.6202 203.873 101.256 210.93 109.613C217.987 117.969 223.044 127.825 225.717 138.431C228.389 149.037 228.607 160.112 226.353 170.815C224.099 181.518 219.433 191.565 212.71 200.192C205.988 208.819 197.385 215.799 187.558 220.6C177.73 225.4 166.937 227.896 156 227.896L156 267.802Z" fill="#448C74"/>
<path d="M65.1215 221.122C74.7207 234.517 87.1626 245.625 101.557 253.651C115.951 261.676 131.941 266.42 148.383 267.542L151.102 227.729C140.529 227.007 130.246 223.957 120.989 218.796C111.733 213.635 103.732 206.492 97.559 197.877L65.1215 221.122Z" fill="#EDCB50"/>
<path d="M46.1766 135.059C40.8352 163.071 46.3995 192.065 61.7312 216.109L95.3788 194.654C85.5196 179.192 81.9413 160.547 85.3762 142.533L46.1766 135.059Z" fill="#3F7FC9"/>
</svg>
