<svg width="200" height="78" viewBox="0 0 200 78" fill="none" xmlns="http://www.w3.org/2000/svg">
<path d="M50.9948 18C39.3999 18 30 27.402 30 38.9996C30 50.5985 39.3999 60 50.9948 60C62.5901 60 71.9895 50.5985 71.9895 38.9996C71.9895 27.4027 62.5906 18.001 50.9945 18.001L50.9948 18ZM60.6228 48.2875C60.2458 48.9061 59.44 49.1 58.8235 48.7231C53.8934 45.7091 47.6879 45.0283 40.3799 46.6981C39.6757 46.8596 38.9737 46.418 38.8133 45.7139C38.6521 45.0095 39.0915 44.3073 39.7975 44.1468C47.795 42.318 54.655 43.1052 60.1888 46.4875C60.8056 46.8662 61.0011 47.6711 60.6226 48.288L60.6228 48.2875ZM63.1925 42.5703C62.7177 43.3409 61.7104 43.5826 60.941 43.1094C55.2988 39.6403 46.6954 38.6355 40.0204 40.6622C39.1547 40.9238 38.2404 40.4358 37.9777 39.5714C37.7169 38.7055 38.2051 37.7927 39.0692 37.5294C46.6939 35.2153 56.1725 36.3362 62.6533 40.3197C63.4229 40.7936 63.6661 41.8017 63.1923 42.5705L63.1925 42.5703ZM63.4131 36.6161C56.6456 32.5961 45.4827 32.2264 39.0223 34.1877C37.9849 34.5024 36.8878 33.9166 36.5735 32.8789C36.2591 31.8408 36.8442 30.7442 37.8824 30.4287C45.2985 28.1768 57.6269 28.6119 65.4173 33.2378C66.3504 33.7917 66.6565 34.9971 66.1034 35.9292C65.5519 36.8626 64.3435 37.1703 63.4134 36.6161H63.4131ZM87.1198 37.3864C83.4948 36.5218 82.8495 35.915 82.8495 34.6398C82.8495 33.4351 83.9835 32.6244 85.6697 32.6244C87.3043 32.6244 88.9251 33.24 90.6244 34.5074C90.6758 34.5458 90.7402 34.5611 90.8036 34.551C90.8671 34.5415 90.9232 34.5067 90.9603 34.4542L92.7303 31.9586C92.803 31.8558 92.7832 31.7141 92.6852 31.6356C90.6627 30.0124 88.3853 29.2233 85.7234 29.2233C81.8094 29.2233 79.0754 31.5727 79.0754 34.9342C79.0754 38.539 81.4338 39.8154 85.5093 40.8006C88.978 41.5998 89.5634 42.2694 89.5634 43.4663C89.5634 44.7926 88.3796 45.6171 86.4745 45.6171C84.3586 45.6171 82.6327 44.9042 80.702 43.2318C80.6541 43.1904 80.5884 43.1716 80.5278 43.1751C80.4638 43.1804 80.4054 43.21 80.3648 43.2589L78.3802 45.6214C78.297 45.7194 78.3075 45.8658 78.4038 45.9506C80.6501 47.9565 83.4129 49.016 86.3943 49.016C90.6119 49.016 93.3373 46.7109 93.3373 43.1433C93.3448 40.1316 91.5423 38.464 87.1273 37.3897L87.1198 37.3864ZM102.879 33.8105C101.051 33.8105 99.5515 34.5307 98.315 36.0065V34.3454C98.315 34.2143 98.2087 34.1074 98.0778 34.1074H94.832C94.7008 34.1074 94.5948 34.2143 94.5948 34.3454V52.8023C94.5948 52.9334 94.7008 53.0402 94.832 53.0402H98.0778C98.2087 53.0402 98.315 52.9334 98.315 52.8023V46.9762C99.5517 48.3645 101.051 49.0428 102.879 49.0428C106.276 49.0428 109.715 46.4273 109.715 41.4275C109.72 36.4265 106.28 33.8103 102.883 33.8103L102.879 33.8105ZM105.94 41.4275C105.94 43.9736 104.372 45.7502 102.127 45.7502C99.9077 45.7502 98.2335 43.8928 98.2335 41.4275C98.2335 38.9625 99.9077 37.1048 102.127 37.1048C104.336 37.1046 105.94 38.9221 105.94 41.4273L105.94 41.4275ZM118.528 33.8105C114.154 33.8105 110.726 37.1798 110.726 41.4819C110.726 45.7372 114.13 49.0711 118.474 49.0711C122.865 49.0711 126.302 45.7131 126.302 41.4275C126.302 37.1567 122.888 33.811 118.528 33.811L118.528 33.8105ZM118.528 45.7756C116.201 45.7756 114.447 43.9056 114.447 41.4263C114.447 38.9364 116.141 37.1296 118.474 37.1296C120.816 37.1296 122.582 38.9996 122.582 41.4807C122.582 43.97 120.877 45.7756 118.528 45.7756H118.528ZM135.644 34.1074H132.072V30.4548C132.072 30.3239 131.966 30.2171 131.835 30.2171H128.59C128.458 30.2171 128.352 30.3239 128.352 30.4548V34.1074H126.791C126.66 34.1074 126.555 34.2143 126.555 34.3454V37.1357C126.555 37.2666 126.66 37.3737 126.791 37.3737H128.352V44.5935C128.352 47.5111 129.804 48.9904 132.667 48.9904C133.831 48.9904 134.797 48.7499 135.707 48.2336C135.781 48.1922 135.827 48.1125 135.827 48.0277V45.3706C135.827 45.2886 135.785 45.2111 135.714 45.1682C135.644 45.1238 135.556 45.1216 135.483 45.1574C134.858 45.4722 134.254 45.6173 133.578 45.6173C132.536 45.6173 132.072 45.1444 132.072 44.0844V37.3749H135.644C135.775 37.3749 135.88 37.2681 135.88 37.137V34.3469C135.885 34.2158 135.78 34.109 135.647 34.109L135.644 34.1074ZM148.089 34.1217V33.6731C148.089 32.3533 148.595 31.7648 149.729 31.7648C150.406 31.7648 150.949 31.8992 151.558 32.1023C151.633 32.1259 151.711 32.1141 151.772 32.0692C151.835 32.0243 151.87 31.9523 151.87 31.8761V29.1403C151.87 29.0357 151.803 28.9432 151.702 28.9123C151.059 28.721 150.236 28.5246 149.004 28.5246C146.007 28.5246 144.422 30.2133 144.422 33.4063V34.0934H142.862C142.732 34.0934 142.624 34.2002 142.624 34.3311V37.1357C142.624 37.2666 142.732 37.3736 142.862 37.3736H144.422V48.5099C144.422 48.641 144.528 48.7479 144.659 48.7479H147.904C148.036 48.7479 148.142 48.641 148.142 48.5099V37.3744H151.173L155.815 48.5079C155.288 49.6777 154.77 49.9104 154.062 49.9104C153.491 49.9104 152.888 49.7397 152.273 49.4026C152.215 49.3708 152.146 49.3655 152.084 49.3848C152.022 49.4066 151.97 49.4528 151.943 49.513L150.843 51.9271C150.791 52.0412 150.836 52.1751 150.945 52.2343C152.094 52.8564 153.131 53.122 154.412 53.122C156.809 53.122 158.133 52.0053 159.301 49.0011L164.932 34.4467C164.961 34.3735 164.952 34.2907 164.907 34.2258C164.863 34.1613 164.791 34.1225 164.712 34.1225H161.333C161.232 34.1225 161.141 34.1869 161.108 34.282L157.647 44.1717L153.855 34.2754C153.821 34.1834 153.732 34.1225 153.634 34.1225H148.088L148.089 34.1217ZM140.873 34.1074H137.627C137.496 34.1074 137.39 34.2143 137.39 34.3454V48.5099C137.39 48.641 137.496 48.7479 137.627 48.7479H140.873C141.004 48.7479 141.111 48.641 141.111 48.5099V34.3464C141.111 34.3151 141.105 34.2841 141.093 34.2552C141.081 34.2263 141.064 34.2 141.042 34.1779C141.02 34.1558 140.993 34.1382 140.964 34.1263C140.935 34.1144 140.904 34.1083 140.873 34.1084L140.873 34.1074ZM139.269 27.658C137.983 27.658 136.94 28.6992 136.94 29.9853C136.94 31.2723 137.983 32.3147 139.269 32.3147C140.554 32.3147 141.597 31.2723 141.597 29.9853C141.597 28.6994 140.554 27.658 139.27 27.658H139.269ZM167.704 38.6616C166.419 38.6616 165.42 37.6297 165.42 36.3766C165.42 35.1235 166.432 34.0798 167.716 34.0798C169 34.0798 170 35.1115 170 36.3636C170 37.6167 168.987 38.6616 167.704 38.6616H167.704ZM167.716 34.307C166.546 34.307 165.661 35.2374 165.661 36.3766C165.661 37.5153 166.54 38.4331 167.705 38.4331C168.874 38.4331 169.761 37.5036 169.761 36.3636C169.761 35.2248 168.881 34.307 167.717 34.307H167.716ZM168.223 36.5985L168.869 37.5033H168.324L167.742 36.6733H167.242V37.5033H166.786V35.105H167.855C168.413 35.105 168.779 35.3901 168.779 35.8701C168.781 36.2633 168.553 36.5035 168.225 36.5985H168.223V36.5985ZM167.837 35.5165H167.242V36.2751H167.837C168.134 36.2751 168.311 36.1299 168.311 35.8954C168.311 35.6487 168.133 35.5165 167.837 35.5165H167.837V35.5165Z" fill="#B8BCC2"/>
</svg>
